<?xml version="1.0" encoding="utf-8"?>
<!-- Uploaded to SVGRepo https://www.svgrepo.com -->
<svg version="1.1" id="Layer_1" xmlns="http://www.w3.org/2000/svg" xmlns:xlink="http://www.w3.org/1999/xlink" x="0px" y="0px"
	 width="229px" height="260px" viewBox="0 0 229 260" enable-background="new 0 0 229 260" xml:space="preserve">
<path d="M221.942,112.245H169.21c-11.187-7.122-15.759-17.081-17.584-24.768c9.514-0.463,18.4-4.597,24.863-11.455
	c4.247,3.525,9.642,5.524,15.27,5.524c13.179,0,23.9-10.722,23.9-23.9c0-5.784-2.031-11.231-5.762-15.561
	c-0.244-15.378-12.831-27.813-28.267-27.813c-5.22,0-10.364,1.47-14.792,4.187c-5.228-2.747-11.043-4.187-17-4.187
	c-3.549,0-7.036,0.506-10.404,1.507C130.892,6.983,119.195,2,106.842,2c-8.557,0-16.809,2.368-24.017,6.869
	c-2.544-0.721-5.17-1.086-7.836-1.086c-13.057,0-24.363,8.949-27.742,21.161c-0.635-0.049-1.273-0.074-1.913-0.074
	c-13.456,0-24.403,10.947-24.403,24.402c0,13.456,10.947,24.404,24.403,24.404c0.003,0,0.006,0,0.01,0
	c5.408,5.587,12.805,8.746,20.658,8.746c2.716,0,5.384-0.385,7.946-1.12c-1.41,7.51-5.624,19.011-18.038,26.943H7.058
	c-3.257,10.527-5.014,21.712-5.014,33.299C2.044,207.649,52.395,258,114.5,258c62.115,0,112.456-50.351,112.456-112.456
	C226.956,133.957,225.2,122.772,221.942,112.245z M66.001,76.758c-5.778,0-11.187-2.578-14.839-7.072
	c-1.031-1.269-2.631-1.926-4.263-1.757c-0.522,0.056-1.048,0.084-1.565,0.084c-8.127,0-14.738-6.612-14.738-14.739
	c0-8.126,6.612-14.738,14.738-14.738c1.491,0,2.961,0.221,4.368,0.657c1.401,0.436,2.922,0.21,4.136-0.611
	c1.215-0.82,1.991-2.148,2.111-3.608c0.807-9.827,9.17-17.524,19.04-17.524c2.343,0,4.638,0.423,6.821,1.258
	c1.5,0.574,3.188,0.365,4.502-0.559c6.043-4.241,13.142-6.483,20.53-6.483c10.616,0,20.62,4.676,27.446,12.83
	c1.343,1.604,3.565,2.162,5.507,1.382c3.203-1.288,6.581-1.94,10.041-1.94c5.199,0,10.25,1.489,14.607,4.306
	c1.741,1.125,4.007,1.014,5.628-0.274c3.322-2.638,7.318-4.032,11.558-4.032c10.259,0,18.606,8.346,18.606,18.604
	c0,0.382-0.017,0.76-0.038,1.136c-0.08,1.402,0.453,2.769,1.461,3.747c2.797,2.709,4.336,6.339,4.336,10.222
	c0,7.85-6.387,14.236-14.237,14.236c-4.601,0-8.943-2.247-11.613-6.01c-0.907-1.278-2.376-2.036-3.941-2.036
	c-0.018,0-0.037,0-0.057,0c-1.585,0.018-3.06,0.813-3.948,2.128c-5.029,7.448-13.389,11.894-22.362,11.894
	c-1.16,0-2.313-0.08-3.454-0.227c-0.029-0.003-0.058-0.006-0.087-0.009c-3.661-0.483-7.191-1.709-10.362-3.621
	c-1.795-1.082-4.08-0.886-5.663,0.487c-6.506,5.643-14.826,8.751-23.429,8.751c-8.951,0-17.518-3.323-24.124-9.357
	c-0.916-0.837-2.085-1.264-3.26-1.264c-0.945,0-1.894,0.276-2.719,0.838C73.568,75.616,69.855,76.758,66.001,76.758z M83.576,86.501
	c6.984,4.168,14.996,6.402,23.267,6.402c9.798,0,19.306-3.172,27.124-8.993c2.436,1.172,4.994,2.065,7.623,2.671
	c1.204,6.665,4.367,16.773,12.614,25.663H71.014C79.176,103.51,82.36,93.57,83.576,86.501z M51.288,150.408
	c0-10.675,8.654-19.329,19.329-19.329s19.329,8.654,19.329,19.329c0,10.675-8.654,19.329-19.329,19.329
	S51.288,161.083,51.288,150.408z M153.022,219.068c-5.132,8.046-17.554,0.9-37.67,0.841c-20.115,0.059-32.538,7.205-37.67-0.841
	c-8.516-13.35,14.845-32.94,37.603-33.119v-0.002c0.023,0,0.044,0.001,0.067,0.001c0.023,0,0.044-0.001,0.067-0.001v0.002
	C138.176,186.129,161.538,205.718,153.022,219.068z M156.756,169.737c-10.675,0-19.329-8.654-19.329-19.329
	c0-10.675,8.654-19.329,19.329-19.329s19.329,8.654,19.329,19.329C176.085,161.083,167.431,169.737,156.756,169.737z" fill="#212326"/>
</svg>
